<?xml version="1.0" encoding="UTF-8" standalone="no"?>
<!DOCTYPE svg PUBLIC "-//W3C//DTD SVG 1.1//EN" "http://www.w3.org/Graphics/SVG/1.1/DTD/svg11.dtd">
<svg width="100%" height="100%" viewBox="0 0 2741 1182" version="1.1" xmlns="http://www.w3.org/2000/svg" xmlns:xlink="http://www.w3.org/1999/xlink" xml:space="preserve" xmlns:serif="http://www.serif.com/" style="fill-rule:evenodd;clip-rule:evenodd;stroke-linecap:round;stroke-linejoin:round;stroke-miterlimit:1.5;">
    <g id="Laterne-3" serif:id="Laterne 3" transform="matrix(1,0,0,1,377.264,104.343)">
        <g id="Kette3" transform="matrix(1,0,0,1,479.004,333)">
            <g transform="matrix(1.11111,0,0,1,-753.004,-2001.04)">
                <path d="M1134,1931L1143,1940L1143,1949L1134,1940L1134,1931" style="fill:white;"/>
            </g>
            <g transform="matrix(1.11111,0,0,1,-753.004,-1990.04)">
                <path d="M1134,1931L1143,1940L1143,1943L1134,1940L1134,1931" style="fill:white;"/>
            </g>
            <g transform="matrix(1.11111,0,0,1,-753.004,-2012.04)">
                <path d="M1134,1931L1143,1940L1143,1949L1134,1940L1134,1931" style="fill:white;"/>
            </g>
            <g transform="matrix(1.11111,0,0,1,-753.004,-2023.04)">
                <path d="M1134,1931L1143,1940L1143,1949L1134,1940L1134,1931" style="fill:white;"/>
            </g>
            <g transform="matrix(1.11111,0,0,1,-753.004,-2034.04)">
                <path d="M1134,1931L1143,1940L1143,1949L1134,1940L1134,1931" style="fill:white;"/>
            </g>
            <g transform="matrix(1.11111,0,0,1,-753.004,-2045.04)">
                <path d="M1134,1931L1143,1940L1143,1949L1134,1940L1134,1931" style="fill:white;"/>
            </g>
            <g transform="matrix(1.11111,0,0,1,-753.004,-2056.04)">
                <path d="M1134,1931L1143,1940L1143,1949L1134,1940L1134,1931" style="fill:white;"/>
            </g>
            <g transform="matrix(1.11111,0,0,1,-753.004,-2067.04)">
                <path d="M1134,1931L1143,1940L1143,1949L1134,1940L1134,1931" style="fill:white;"/>
            </g>
            <g transform="matrix(1.11111,0,0,1,-753.004,-2078.04)">
                <path d="M1134,1931L1143,1940L1143,1949L1134,1940L1134,1931" style="fill:white;"/>
            </g>
            <g transform="matrix(1.11111,0,0,1,-753.004,-2090.04)">
                <path d="M1134,1931L1143,1940L1143,1949L1134,1940L1134,1931" style="fill:white;"/>
            </g>
            <g transform="matrix(1.11111,0,0,1,-753.004,-2101.04)">
                <path d="M1134,1931L1143,1940L1143,1949L1134,1940L1134,1931" style="fill:white;"/>
            </g>
            <g transform="matrix(1.11111,0,0,1,-753.004,-2112.04)">
                <path d="M1134,1931L1143,1940L1143,1949L1134,1940L1134,1931" style="fill:white;"/>
            </g>
            <g transform="matrix(1.11111,0,0,1,-753.004,-2123.04)">
                <path d="M1134,1931L1143,1940L1143,1949L1134,1940L1134,1931" style="fill:white;"/>
            </g>
            <g transform="matrix(1.11111,0,0,1,-753.004,-2135.04)">
                <path d="M1134,1931L1143,1940L1143,1949L1134,1940L1134,1931" style="fill:white;"/>
            </g>
            <g transform="matrix(1.11111,0,0,1,-753.004,-2146.04)">
                <path d="M1134,1931L1143,1940L1143,1949L1134,1940L1134,1931" style="fill:white;"/>
            </g>
            <g transform="matrix(1.11111,0,0,1,-753.004,-2157.04)">
                <path d="M1134,1931L1143,1940L1143,1949L1134,1940L1134,1931" style="fill:white;"/>
            </g>
            <g transform="matrix(1.11111,0,0,1,-753.004,-2168.04)">
                <path d="M1134,1931L1143,1940L1143,1949L1134,1940L1134,1931" style="fill:white;"/>
            </g>
        </g>
        <g id="Laterne3" transform="matrix(-1,0,0,1,2022.49,0)">
            <g id="ohne-Füllung" serif:id="ohne Füllung" transform="matrix(-1,0,0,1,2022.49,0)">
                <g transform="matrix(-2.54545,0,0,1,3566.22,-222.449)">
                    <ellipse cx="1011.5" cy="527.5" rx="5.5" ry="21.5" style="fill:none;stroke:white;stroke-width:2.15px;"/>
                </g>
                <g transform="matrix(-1,0,0,1,2002.49,-264)">
                    <path d="M931,790C946.987,917.685 959.474,904.839 972,770" style="fill:none;stroke:white;stroke-width:4.17px;"/>
                </g>
                <g transform="matrix(-1,0,0,0.986438,2002.49,-253.97)">
                    <path d="M951.5,739.577L951.5,999.664" style="fill:none;stroke:white;stroke-width:4.2px;"/>
                </g>
                <g transform="matrix(-1,0,0,1,2002.49,-264)">
                    <path d="M931,711C942.375,751.417 962.725,746.716 972,711" style="fill:none;stroke:white;stroke-width:4.17px;"/>
                </g>
                <g transform="matrix(-1,0,0,1,2002.49,-264)">
                    <path d="M937,1017C943.751,1055.91 1013.74,1044.06 1011,1077" style="fill:none;stroke:white;stroke-width:13.33px;"/>
                </g>
                <g transform="matrix(-1,0,0,1,2002.49,-264)">
                    <path d="M912,999L1011,999" style="fill:none;stroke:white;stroke-width:13.33px;"/>
                </g>
                <g transform="matrix(-0.848485,0,0,1,1849.31,-246)">
                    <path d="M912,999L1011,999" style="fill:none;stroke:white;stroke-width:14.38px;"/>
                </g>
                <g transform="matrix(-1,0,0,1,2002.49,-264)">
                    <path d="M931,715L931,999" style="fill:none;stroke:white;stroke-width:9.17px;"/>
                </g>
                <g transform="matrix(-1,0,0,1,1959.49,-264)">
                    <path d="M931,715L931,999" style="fill:none;stroke:white;stroke-width:9.17px;"/>
                </g>
                <g transform="matrix(-1,0,0,1,1885.49,-264)">
                    <path d="M931,715L931,999" style="fill:none;stroke:white;stroke-width:9.17px;"/>
                </g>
                <g transform="matrix(-1,0,0,1,2002.49,-264)">
                    <path d="M913,715L1011,715" style="fill:none;stroke:white;stroke-width:13.33px;"/>
                </g>
                <g transform="matrix(-1,0,0,1,2002.49,-264)">
                    <path d="M1011,697L932,697" style="fill:none;stroke:white;stroke-width:4.17px;"/>
                </g>
                <g transform="matrix(-1,0,0,1,2002.49,-264)">
                    <path d="M1011,687L934,687" style="fill:none;stroke:white;stroke-width:4.17px;"/>
                </g>
                <g transform="matrix(-1,0,0,1,2002.49,-264)">
                    <path d="M1007,623C1000.95,638.273 998.036,669.4 997,710" style="fill:none;stroke:white;stroke-width:4.17px;"/>
                </g>
                <g transform="matrix(-1,0,0,1,2002.49,-264)">
                    <path d="M989,627C959.874,644.332 947.769,673.9 949,710" style="fill:none;stroke:white;stroke-width:4.17px;"/>
                </g>
                <g transform="matrix(-1,0,0,1,2002.49,-264)">
                    <path d="M974,715C975.247,677.477 977.507,646.978 1001,625" style="fill:none;stroke:white;stroke-width:10.42px;"/>
                </g>
                <g transform="matrix(-1,0,0,1,2002.49,-264)">
                    <path d="M928,715C932.858,655.265 965.431,625.54 1011,623" style="fill:none;stroke:white;stroke-width:10.42px;"/>
                </g>
                <g transform="matrix(-1,0,0,1,2002.49,-264)">
                    <path d="M974.039,1016C974.438,1022.62 983.33,1038.49 993,1051" style="fill:none;stroke:white;stroke-width:4.17px;"/>
                </g>
                <g transform="matrix(-1,0,0,1,2002.49,-264)">
                    <path d="M1011,1044L964,1044" style="fill:none;stroke:white;stroke-width:4.17px;"/>
                </g>
                <g transform="matrix(-1,0,0,1,2002.49,-264)">
                    <path d="M1011,1034L947,1034" style="fill:none;stroke:white;stroke-width:4.17px;"/>
                </g>
                <g transform="matrix(-1,0,0,1,2002.49,-264)">
                    <path d="M973,1017L973,999" style="fill:none;stroke:white;stroke-width:4.17px;"/>
                </g>
                <g transform="matrix(-1,0,0,1,2002.49,-264)">
                    <path d="M932,999L932,1017" style="fill:none;stroke:white;stroke-width:4.17px;"/>
                </g>
                <g transform="matrix(2.54545,0,0,1,-1583.73,-222.449)">
                    <ellipse cx="1011.5" cy="527.5" rx="5.5" ry="21.5" style="fill:none;stroke:white;stroke-width:2.15px;"/>
                </g>
                <g transform="matrix(1,0,0,1,-20,-264)">
                    <path d="M931,790C946.987,917.685 959.474,904.839 972,770" style="fill:none;stroke:white;stroke-width:4.17px;"/>
                </g>
                <g transform="matrix(1,0,0,0.986438,-20,-253.97)">
                    <path d="M951.5,739.577L951.5,999.664" style="fill:none;stroke:white;stroke-width:4.2px;"/>
                </g>
                <g transform="matrix(1,0,0,1,-20,-264)">
                    <path d="M931,711C942.375,751.417 962.725,746.716 972,711" style="fill:none;stroke:white;stroke-width:4.17px;"/>
                </g>
                <g transform="matrix(1,0,0,1,-20,-264)">
                    <path d="M937,1017C943.751,1055.91 1013.74,1044.06 1011,1077" style="fill:none;stroke:white;stroke-width:13.33px;"/>
                </g>
                <g transform="matrix(1,0,0,1,-20,-264)">
                    <path d="M912,999L1011,999" style="fill:none;stroke:white;stroke-width:13.33px;"/>
                </g>
                <g transform="matrix(0.848485,0,0,1,133.182,-246)">
                    <path d="M912,999L1011,999" style="fill:none;stroke:white;stroke-width:14.38px;"/>
                </g>
                <g transform="matrix(1,0,0,1,-20,-264)">
                    <path d="M931,715L931,999" style="fill:none;stroke:white;stroke-width:9.17px;"/>
                </g>
                <g transform="matrix(1,0,0,1,-20,-264)">
                    <path d="M913,715L1011,715" style="fill:none;stroke:white;stroke-width:13.33px;"/>
                </g>
                <g transform="matrix(1,0,0,1,-20,-264)">
                    <path d="M1011,697L932,697" style="fill:none;stroke:white;stroke-width:4.17px;"/>
                </g>
                <g transform="matrix(1,0,0,1,-20,-264)">
                    <path d="M1011,687L934,687" style="fill:none;stroke:white;stroke-width:4.17px;"/>
                </g>
                <g transform="matrix(1,0,0,1,-20,-264)">
                    <path d="M1007,623C1000.95,638.273 998.036,669.4 997,710" style="fill:none;stroke:white;stroke-width:4.17px;"/>
                </g>
                <g transform="matrix(1,0,0,1,-20,-264)">
                    <path d="M989,627C959.874,644.332 947.769,673.9 949,710" style="fill:none;stroke:white;stroke-width:4.17px;"/>
                </g>
                <g transform="matrix(1,0,0,1,-20,-264)">
                    <path d="M974,715C975.247,677.477 977.507,646.978 1001,625" style="fill:none;stroke:white;stroke-width:10.42px;"/>
                </g>
                <g transform="matrix(1,0,0,1,-20,-264)">
                    <path d="M928,715C932.858,655.265 965.431,625.54 1011,623" style="fill:none;stroke:white;stroke-width:10.42px;"/>
                </g>
                <g transform="matrix(1,0,0,1,-20,-264)">
                    <path d="M974.039,1016C974.438,1022.62 983.33,1038.49 993,1051" style="fill:none;stroke:white;stroke-width:4.17px;"/>
                </g>
                <g transform="matrix(1,0,0,1,-20,-264)">
                    <path d="M1011,1044L964,1044" style="fill:none;stroke:white;stroke-width:4.17px;"/>
                </g>
                <g transform="matrix(1,0,0,1,-20,-264)">
                    <path d="M1011,1034L947,1034" style="fill:none;stroke:white;stroke-width:4.17px;"/>
                </g>
                <g transform="matrix(1,0,0,1,-20,-264)">
                    <path d="M973,1017L973,999" style="fill:none;stroke:white;stroke-width:4.17px;"/>
                </g>
                <g transform="matrix(1,0,0,1,-20,-264)">
                    <path d="M932,999L932,1017" style="fill:none;stroke:white;stroke-width:4.17px;"/>
                </g>
            </g>
            <g id="mit-Füllung" serif:id="mit Füllung" transform="matrix(-1,0,0,1,2022.49,0)">
                <g transform="matrix(-1,0,0,1,1962.99,-265)">
                    <circle cx="912" cy="875" r="10" style="fill:white;stroke:white;stroke-width:1px;"/>
                </g>
                <g transform="matrix(-1,0,0,1,1956.99,-278)">
                    <circle cx="965.5" cy="1101.5" r="5.5" style="fill:white;stroke:white;stroke-width:1px;"/>
                </g>
                <g transform="matrix(-0.636364,0,0,0.636364,1605.9,129.545)">
                    <circle cx="965.5" cy="1101.5" r="5.5" style="fill:white;stroke:white;stroke-width:1.57px;"/>
                </g>
                <g transform="matrix(-0.454545,0,0,0.454545,1430.28,334.818)">
                    <circle cx="965.5" cy="1101.5" r="5.5" style="fill:white;stroke:white;stroke-width:2.2px;"/>
                </g>
                <g transform="matrix(1,0,0,1,19.5,-265)">
                    <circle cx="912" cy="875" r="10" style="fill:white;stroke:white;stroke-width:1px;"/>
                </g>
                <g transform="matrix(1,0,0,1,25.5,-278)">
                    <circle cx="965.5" cy="1101.5" r="5.5" style="fill:white;stroke:white;stroke-width:1px;"/>
                </g>
                <g transform="matrix(0.636364,0,0,0.636364,376.591,129.545)">
                    <circle cx="965.5" cy="1101.5" r="5.5" style="fill:white;stroke:white;stroke-width:1.57px;"/>
                </g>
                <g transform="matrix(0.454545,0,0,0.454545,552.215,334.818)">
                    <circle cx="965.5" cy="1101.5" r="5.5" style="fill:white;stroke:white;stroke-width:2.2px;"/>
                </g>
                <path d="M991.492,359L991.492,332C1011.02,331.18 1021.88,343.04 1024.49,367L991.492,359ZM991,359L991,332C971.476,331.18 960.608,343.04 958,367L991,359Z" style="fill:white;stroke:white;stroke-width:2.08px;"/>
                <path d="M995.723,335.01L986.769,335.01C984.434,335.01 982.538,333.115 982.538,330.78L982.538,317.241C982.538,314.906 984.434,313.01 986.769,313.01L995.723,313.01C998.058,313.01 999.954,314.906 999.954,317.241L999.954,330.78C999.954,333.115 998.058,335.01 995.723,335.01Z" style="fill:white;stroke:white;stroke-width:6.25px;"/>
            </g>
        </g>
    </g>
    <g id="Laterne-2" serif:id="Laterne 2" transform="matrix(1,0,0,1,389.029,61.1541)">
        <g id="Kette2" transform="matrix(1,0,0,1,912.921,-98)">
            <g transform="matrix(1.11111,0,0,1,-894.004,-1639.16)">
                <path d="M1134,1931L1143,1940L1143,1949L1134,1940L1134,1931" style="fill:white;"/>
            </g>
            <g transform="matrix(1.11111,0,0,1,-894.004,-1628.16)">
                <path d="M1134,1931L1143,1940L1143,1943L1134,1940L1134,1931" style="fill:white;"/>
            </g>
            <g transform="matrix(1.11111,0,0,1,-894.004,-1650.16)">
                <path d="M1134,1931L1143,1940L1143,1949L1134,1940L1134,1931" style="fill:white;"/>
            </g>
            <g transform="matrix(1.11111,0,0,1,-894.004,-1661.16)">
                <path d="M1134,1931L1143,1940L1143,1949L1134,1940L1134,1931" style="fill:white;"/>
            </g>
            <g transform="matrix(1.11111,0,0,1,-894.004,-1672.16)">
                <path d="M1134,1931L1143,1940L1143,1949L1134,1940L1134,1931" style="fill:white;"/>
            </g>
            <g transform="matrix(1.11111,0,0,1,-894.004,-1683.16)">
                <path d="M1134,1931L1143,1940L1143,1949L1134,1940L1134,1931" style="fill:white;"/>
            </g>
            <g transform="matrix(1.11111,0,0,1,-894.004,-1694.16)">
                <path d="M1134,1931L1143,1940L1143,1949L1134,1940L1134,1931" style="fill:white;"/>
            </g>
            <g transform="matrix(1.11111,0,0,1,-894.004,-1705.16)">
                <path d="M1134,1931L1143,1940L1143,1949L1134,1940L1134,1931" style="fill:white;"/>
            </g>
            <g transform="matrix(1.11111,0,0,1,-894.004,-1716.16)">
                <path d="M1134,1931L1143,1940L1143,1949L1134,1940L1134,1931" style="fill:white;"/>
            </g>
            <g transform="matrix(1.11111,0,0,1,-894.004,-1728.16)">
                <path d="M1134,1931L1143,1940L1143,1949L1134,1940L1134,1931" style="fill:white;"/>
            </g>
            <g transform="matrix(1.11111,0,0,1,-894.004,-1739.16)">
                <path d="M1134,1931L1143,1940L1143,1949L1134,1940L1134,1931" style="fill:white;"/>
            </g>
            <g transform="matrix(1.11111,0,0,1,-894.004,-1750.16)">
                <path d="M1134,1931L1143,1940L1143,1949L1134,1940L1134,1931" style="fill:white;"/>
            </g>
            <g transform="matrix(1.11111,0,0,1,-894.004,-1761.16)">
                <path d="M1134,1931L1143,1940L1143,1949L1134,1940L1134,1931" style="fill:white;"/>
            </g>
            <g transform="matrix(1.11111,0,0,1,-894.004,-1773.16)">
                <path d="M1134,1931L1143,1940L1143,1949L1134,1940L1134,1931" style="fill:white;"/>
            </g>
            <g transform="matrix(1.11111,0,0,1,-894.004,-1784.16)">
                <path d="M1134,1931L1143,1940L1143,1949L1134,1940L1134,1931" style="fill:white;"/>
            </g>
            <g transform="matrix(1.11111,0,0,1,-894.004,-1795.16)">
                <path d="M1134,1931L1143,1940L1143,1949L1134,1940L1134,1931" style="fill:white;"/>
            </g>
            <g transform="matrix(1.11111,0,0,1,-894.004,-1806.16)">
                <path d="M1134,1931L1143,1940L1143,1949L1134,1940L1134,1931" style="fill:white;"/>
            </g>
        </g>
        <g id="Laterne2" transform="matrix(-1,0,0,1,2599.92,-105)">
            <g id="mit-Füllung1" serif:id="mit Füllung" transform="matrix(-1,0,0,1,2599.92,105)">
                <path d="M1290.92,648.997C1290.5,657.819 1288.83,663.645 1284.42,662.883L1284.42,648.997L1290.92,648.997ZM1283.92,662.883C1279.51,663.645 1277.84,657.819 1277.42,648.997L1283.92,648.997L1283.92,662.883ZM1280.42,648.883C1274.55,649.855 1273.08,644.527 1273.92,635.883C1268.08,630.862 1269.35,627.611 1268.42,621.883L1276.17,623.883L1276.17,622.883L1283.92,622.883L1283.92,648.883L1280.42,648.883ZM1292.17,622.883L1292.17,623.883L1299.92,621.883C1298.99,627.611 1300.25,630.862 1294.42,635.883C1295.26,644.527 1293.78,649.855 1287.92,648.883L1284.42,648.883L1284.42,622.883L1292.17,622.883Z" style="fill:white;stroke:white;stroke-width:2.08px;"/>
                <path d="M1300.92,264.883C1304,253.692 1286.18,241.818 1284.42,248.883L1284.42,262.883L1300.92,264.883ZM1267.42,264.883C1264.33,253.692 1282.15,241.818 1283.92,248.883L1283.92,262.883L1267.42,264.883Z" style="fill:white;stroke:white;stroke-width:2.08px;"/>
                <path d="M1280.92,237.883L1287.42,237.883C1288.8,237.883 1289.92,239.004 1289.92,240.383L1289.92,248.383C1289.92,249.763 1288.8,250.883 1287.42,250.883L1282.42,250.883L1280.92,250.883C1279.54,250.883 1278.42,249.763 1278.42,248.383L1278.42,240.383C1278.42,239.004 1279.54,237.883 1280.92,237.883Z" style="fill:white;stroke:white;stroke-width:6.25px;"/>
            </g>
            <g id="ohne-Füllung1" serif:id="ohne Füllung" transform="matrix(-1,0,0,1,2599.92,105)">
                <g transform="matrix(-0.5,0,0,1,1891.92,-7.11667)">
                    <path d="M1093,313L1215,313" style="fill:none;stroke:white;stroke-width:15.81px;"/>
                </g>
                <g transform="matrix(-0.704918,0,0,1,2140.89,30.8833)">
                    <path d="M1093,313L1215,313" style="fill:none;stroke:white;stroke-width:14.45px;"/>
                </g>
                <g transform="matrix(-0.840164,0,0,1,2305.22,50.8833)">
                    <path d="M1093,313L1215,313" style="fill:none;stroke:white;stroke-width:13.53px;"/>
                </g>
                <g transform="matrix(-0.454918,0,0,1,1837.14,272.796)">
                    <path d="M1093,313L1215,313" style="fill:none;stroke:white;stroke-width:16.09px;"/>
                </g>
                <g transform="matrix(-0.263158,0,0,0.28,1622.81,255.443)">
                    <path d="M1075,373L1113,423" style="fill:none;stroke:white;stroke-width:12.27px;"/>
                </g>
                <g transform="matrix(-0.473684,0,0,0.48,1856.13,181.843)">
                    <path d="M1075,373L1113,423" style="fill:none;stroke:white;stroke-width:6.99px;"/>
                </g>
                <g transform="matrix(-1,0,0,1,2438.92,-7.11667)">
                    <path d="M1108,313L1065,371" style="fill:none;stroke:white;stroke-width:4.17px;"/>
                </g>
                <g transform="matrix(-1,0,0,1,2438.92,-7.11667)">
                    <path d="M1151.25,597C1145.59,603.752 1140.04,611.072 1138,624" style="fill:none;stroke:white;stroke-width:2.08px;"/>
                </g>
                <g transform="matrix(-1,0,0,1,2438.92,-7.11667)">
                    <path d="M1139,598C1137.48,606.611 1142.02,611.735 1154.5,631" style="fill:none;stroke:white;stroke-width:2.08px;"/>
                </g>
                <g transform="matrix(-3.33333,0,0,1,5134.42,-7.11667)">
                    <ellipse cx="1155" cy="235.5" rx="3" ry="14.5" style="fill:none;stroke:white;stroke-width:1.69px;"/>
                </g>
                <g transform="matrix(-0.76087,0,0,0.866667,2174.2,34.0833)">
                    <path d="M1107,309C1107.14,289.061 1117.33,281.655 1153,264" style="fill:none;stroke:white;stroke-width:7.66px;"/>
                </g>
                <g transform="matrix(-1,0,0,1,2438.92,-7.11667)">
                    <path d="M1154.5,272C1145.12,286.621 1136.32,295.056 1140,309" style="fill:none;stroke:white;stroke-width:2.08px;"/>
                </g>
                <g transform="matrix(-1,0,0,1,2438.92,-7.11667)">
                    <path d="M1129,597C1129.3,616.07 1138.2,627.989 1153,635" style="fill:none;stroke:white;stroke-width:6.25px;"/>
                </g>
                <g transform="matrix(-1,0,0,1,2438.92,-7.11667)">
                    <path d="M1110.5,597C1108.2,609.697 1122.65,622.361 1151,635" style="fill:none;stroke:white;stroke-width:6.25px;"/>
                </g>
                <g transform="matrix(-1,0,0,1,2438.92,-7.11667)">
                    <path d="M1127,553C1135.96,561.664 1145.15,567.323 1154.5,571" style="fill:none;stroke:white;stroke-width:4.17px;"/>
                </g>
                <g transform="matrix(-1,0,0,1,2438.92,-7.11667)">
                    <path d="M1113.5,419C1121.57,404.211 1137.46,396.117 1154.5,389" style="fill:none;stroke:white;stroke-width:6.25px;"/>
                </g>
                <g transform="matrix(0.552632,0,0,0.607461,718.838,315.472)">
                    <path d="M1075,373L1113,423" style="fill:none;stroke:white;stroke-width:5.74px;"/>
                </g>
                <g transform="matrix(0.710526,0,0,0.78,548.102,260.488)">
                    <path d="M1075,373L1113,423" style="fill:none;stroke:white;stroke-width:4.47px;"/>
                </g>
                <g transform="matrix(0.605263,0,0,0.64,666.259,271.335)">
                    <path d="M1075,373L1113,423" style="fill:none;stroke:white;stroke-width:5.35px;"/>
                </g>
                <g transform="matrix(0.578947,0,0,0.6,693.549,296.255)">
                    <path d="M1075,373L1113,423" style="fill:none;stroke:white;stroke-width:5.65px;"/>
                </g>
                <g transform="matrix(0.671053,0,0,0.7,598.536,216.667)">
                    <path d="M1075,373L1113,423" style="fill:none;stroke:white;stroke-width:4.86px;"/>
                </g>
                <g transform="matrix(0.657895,0,0,0.7,611.18,225.667)">
                    <path d="M1075,373L1113,423" style="fill:none;stroke:white;stroke-width:4.91px;"/>
                </g>
                <g transform="matrix(0.736842,0,0,0.76,530.812,162.287)">
                    <path d="M1075,373L1113,423" style="fill:none;stroke:white;stroke-width:4.45px;"/>
                </g>
                <g transform="matrix(0.723684,0,0,0.76,543.957,170.287)">
                    <path d="M1075,373L1113,423" style="fill:none;stroke:white;stroke-width:4.49px;"/>
                </g>
                <g transform="matrix(0.763158,0,0,0.78,505.523,121.943)">
                    <path d="M1075,373L1113,423" style="fill:none;stroke:white;stroke-width:4.32px;"/>
                </g>
                <g transform="matrix(0.736842,0,0,0.76,533.812,139.403)">
                    <path d="M1075,373L1113,423" style="fill:none;stroke:white;stroke-width:4.45px;"/>
                </g>
                <g transform="matrix(-0.631579,0,0,0.66,2016.86,302.679)">
                    <path d="M1075,373L1113,423" style="fill:none;stroke:white;stroke-width:5.16px;"/>
                </g>
                <g transform="matrix(-0.394737,0,0,0.391508,1760.26,417.827)">
                    <path d="M1075,373L1113,423" style="fill:none;stroke:white;stroke-width:8.48px;"/>
                </g>
                <g transform="matrix(-0.921053,0,0,0.94,2338.05,148.152)">
                    <path d="M1075,373L1113,423" style="fill:none;stroke:white;stroke-width:3.58px;"/>
                </g>
                <g transform="matrix(-0.868421,0,0,0.88,2278.47,185.532)">
                    <path d="M1075,373L1113,423" style="fill:none;stroke:white;stroke-width:3.81px;"/>
                </g>
                <g transform="matrix(-1.02632,0,0,1.02,2459.21,70.0445)">
                    <path d="M1075,373L1113,423" style="fill:none;stroke:white;stroke-width:3.26px;"/>
                </g>
                <g transform="matrix(-1,0,0,1.06,2429.92,67.1245)">
                    <path d="M1075,373L1113,423" style="fill:none;stroke:white;stroke-width:3.23px;"/>
                </g>
                <g transform="matrix(-1,0,0,1,2438.92,-7.11667)">
                    <path d="M1075,373L1113,423" style="fill:none;stroke:white;stroke-width:3.33px;"/>
                </g>
                <g transform="matrix(-1.18421,0,0,1.22,2641.94,-86.1767)">
                    <path d="M1075,373L1113,423" style="fill:none;stroke:white;stroke-width:2.77px;"/>
                </g>
                <g transform="matrix(0.868421,0,0,0.9,395.365,43.1833)">
                    <path d="M1075,373L1113,423" style="fill:none;stroke:white;stroke-width:3.77px;"/>
                </g>
                <g transform="matrix(0.815789,0,0,0.9,451.944,53.1833)">
                    <path d="M1075,373L1113,423" style="fill:none;stroke:white;stroke-width:3.88px;"/>
                </g>
                <g transform="matrix(0.631579,0,0,0.68,663.97,106.743)">
                    <path d="M1075,373L1113,423" style="fill:none;stroke:white;stroke-width:5.08px;"/>
                </g>
                <g transform="matrix(0.684211,0,0,0.74,604.391,90.3633)">
                    <path d="M1075,373L1113,423" style="fill:none;stroke:white;stroke-width:4.68px;"/>
                </g>
                <g transform="matrix(-1.15789,0,0,1.19,2610.65,-44.4867)">
                    <path d="M1075,373L1113,423" style="fill:none;stroke:white;stroke-width:2.84px;"/>
                </g>
                <g transform="matrix(-1.15789,0,0,1.2,2608.65,-34.7167)">
                    <path d="M1075,373L1113,423" style="fill:none;stroke:white;stroke-width:2.83px;"/>
                </g>
                <g transform="matrix(-1,0,0,1,2438.92,-7.11667)">
                    <path d="M1130,592.913L1108,371" style="fill:none;stroke:white;stroke-width:4.17px;"/>
                </g>
                <g transform="matrix(-1,0,0,1,2438.92,-7.11667)">
                    <path d="M1066,371L1107,592" style="fill:none;stroke:white;stroke-width:4.17px;"/>
                </g>
                <g transform="matrix(-1,0,0,1,2438.92,-7.11667)">
                    <path d="M1107,351L1107,371" style="fill:none;stroke:white;stroke-width:4.17px;"/>
                </g>
                <g transform="matrix(-0.541284,0,0,0.5,1932,151.383)">
                    <path d="M1092,313L1201,351" style="fill:none;stroke:white;stroke-width:8px;"/>
                </g>
                <g transform="matrix(0.477064,0,0,0.473684,761.963,177.62)">
                    <path d="M1092,313L1201,351" style="fill:none;stroke:white;stroke-width:8.76px;"/>
                </g>
                <g transform="matrix(-1,0,0,1,2438.92,-7.11667)">
                    <path d="M1139,273C1139.06,291.837 1149.28,300.519 1154.5,313" style="fill:none;stroke:white;stroke-width:2.08px;"/>
                </g>
                <g transform="matrix(0.5,0,0,1,676.417,-7.11667)">
                    <path d="M1093,313L1215,313" style="fill:none;stroke:white;stroke-width:15.81px;"/>
                </g>
                <g transform="matrix(0.704918,0,0,1,427.442,30.8833)">
                    <path d="M1093,313L1215,313" style="fill:none;stroke:white;stroke-width:14.45px;"/>
                </g>
                <g transform="matrix(0.840164,0,0,1,263.118,50.8833)">
                    <path d="M1093,313L1215,313" style="fill:none;stroke:white;stroke-width:13.53px;"/>
                </g>
                <g transform="matrix(0.454918,0,0,1,731.192,272.796)">
                    <path d="M1093,313L1215,313" style="fill:none;stroke:white;stroke-width:16.09px;"/>
                </g>
                <g transform="matrix(0.263158,0,0,0.28,945.523,255.443)">
                    <path d="M1075,373L1113,423" style="fill:none;stroke:white;stroke-width:12.27px;"/>
                </g>
                <g transform="matrix(0.473684,0,0,0.48,712.207,181.843)">
                    <path d="M1075,373L1113,423" style="fill:none;stroke:white;stroke-width:6.99px;"/>
                </g>
                <g transform="matrix(1,0,0,1,129.417,-7.11667)">
                    <path d="M1108,313L1065,371" style="fill:none;stroke:white;stroke-width:4.17px;"/>
                </g>
                <g transform="matrix(1,0,0,1,129.417,-7.11667)">
                    <path d="M1151.25,597C1145.59,603.752 1140.04,611.072 1138,624" style="fill:none;stroke:white;stroke-width:2.08px;"/>
                </g>
                <g transform="matrix(1,0,0,1,129.417,-7.11667)">
                    <path d="M1139,598C1137.48,606.611 1142.02,611.735 1154.5,631" style="fill:none;stroke:white;stroke-width:2.08px;"/>
                </g>
                <g transform="matrix(3.33333,0,0,1,-2566.08,-7.11667)">
                    <ellipse cx="1155" cy="235.5" rx="3" ry="14.5" style="fill:none;stroke:white;stroke-width:1.69px;"/>
                </g>
                <g transform="matrix(0.76087,0,0,0.866667,394.135,34.0833)">
                    <path d="M1107,309C1107.14,289.061 1117.33,281.655 1153,264" style="fill:none;stroke:white;stroke-width:7.66px;"/>
                </g>
                <g transform="matrix(1,0,0,1,129.417,-7.11667)">
                    <path d="M1154.5,272C1145.12,286.621 1136.32,295.056 1140,309" style="fill:none;stroke:white;stroke-width:2.08px;"/>
                </g>
                <g transform="matrix(1,0,0,1,129.417,-7.11667)">
                    <path d="M1129,597C1129.3,616.07 1138.2,627.989 1153,635" style="fill:none;stroke:white;stroke-width:6.25px;"/>
                </g>
                <g transform="matrix(1,0,0,1,129.417,-7.11667)">
                    <path d="M1110.5,597C1108.2,609.697 1122.65,622.361 1151,635" style="fill:none;stroke:white;stroke-width:6.25px;"/>
                </g>
                <g transform="matrix(1,0,0,1,129.417,-7.11667)">
                    <path d="M1127,553C1135.96,561.664 1145.15,567.323 1154.5,571" style="fill:none;stroke:white;stroke-width:4.17px;"/>
                </g>
                <g transform="matrix(1,0,0,1,129.417,-7.11667)">
                    <path d="M1113.5,419C1121.57,404.211 1137.46,396.117 1154.5,389" style="fill:none;stroke:white;stroke-width:6.25px;"/>
                </g>
                <g transform="matrix(-0.552632,0,0,0.607461,1849.5,315.472)">
                    <path d="M1075,373L1113,423" style="fill:none;stroke:white;stroke-width:5.74px;"/>
                </g>
                <g transform="matrix(-0.710526,0,0,0.78,2020.23,260.488)">
                    <path d="M1075,373L1113,423" style="fill:none;stroke:white;stroke-width:4.47px;"/>
                </g>
                <g transform="matrix(-0.605263,0,0,0.64,1902.08,271.335)">
                    <path d="M1075,373L1113,423" style="fill:none;stroke:white;stroke-width:5.35px;"/>
                </g>
                <g transform="matrix(-0.578947,0,0,0.6,1874.79,296.255)">
                    <path d="M1075,373L1113,423" style="fill:none;stroke:white;stroke-width:5.65px;"/>
                </g>
                <g transform="matrix(-0.671053,0,0,0.7,1969.8,216.667)">
                    <path d="M1075,373L1113,423" style="fill:none;stroke:white;stroke-width:4.86px;"/>
                </g>
                <g transform="matrix(-0.657895,0,0,0.7,1957.15,225.667)">
                    <path d="M1075,373L1113,423" style="fill:none;stroke:white;stroke-width:4.91px;"/>
                </g>
                <g transform="matrix(-0.736842,0,0,0.76,2037.52,162.287)">
                    <path d="M1075,373L1113,423" style="fill:none;stroke:white;stroke-width:4.45px;"/>
                </g>
                <g transform="matrix(-0.723684,0,0,0.76,2024.38,170.287)">
                    <path d="M1075,373L1113,423" style="fill:none;stroke:white;stroke-width:4.49px;"/>
                </g>
                <g transform="matrix(-0.763158,0,0,0.78,2062.81,121.943)">
                    <path d="M1075,373L1113,423" style="fill:none;stroke:white;stroke-width:4.32px;"/>
                </g>
                <g transform="matrix(-0.736842,0,0,0.76,2034.52,139.403)">
                    <path d="M1075,373L1113,423" style="fill:none;stroke:white;stroke-width:4.45px;"/>
                </g>
                <g transform="matrix(0.631579,0,0,0.66,551.47,302.679)">
                    <path d="M1075,373L1113,423" style="fill:none;stroke:white;stroke-width:5.16px;"/>
                </g>
                <g transform="matrix(0.394737,0,0,0.391508,808.075,417.827)">
                    <path d="M1075,373L1113,423" style="fill:none;stroke:white;stroke-width:8.48px;"/>
                </g>
                <g transform="matrix(0.921053,0,0,0.94,230.286,148.152)">
                    <path d="M1075,373L1113,423" style="fill:none;stroke:white;stroke-width:3.58px;"/>
                </g>
                <g transform="matrix(0.868421,0,0,0.88,289.865,185.532)">
                    <path d="M1075,373L1113,423" style="fill:none;stroke:white;stroke-width:3.81px;"/>
                </g>
                <g transform="matrix(1.02632,0,0,1.02,109.128,70.0445)">
                    <path d="M1075,373L1113,423" style="fill:none;stroke:white;stroke-width:3.26px;"/>
                </g>
                <g transform="matrix(1,0,0,1.06,138.417,67.1245)">
                    <path d="M1075,373L1113,423" style="fill:none;stroke:white;stroke-width:3.23px;"/>
                </g>
                <g transform="matrix(1,0,0,1,129.417,-7.11667)">
                    <path d="M1075,373L1113,423" style="fill:none;stroke:white;stroke-width:3.33px;"/>
                </g>
                <g transform="matrix(1.18421,0,0,1.22,-73.609,-86.1767)">
                    <path d="M1075,373L1113,423" style="fill:none;stroke:white;stroke-width:2.77px;"/>
                </g>
                <g transform="matrix(-0.868421,0,0,0.9,2172.97,43.1833)">
                    <path d="M1075,373L1113,423" style="fill:none;stroke:white;stroke-width:3.77px;"/>
                </g>
                <g transform="matrix(-0.815789,0,0,0.9,2116.39,53.1833)">
                    <path d="M1075,373L1113,423" style="fill:none;stroke:white;stroke-width:3.88px;"/>
                </g>
                <g transform="matrix(-0.631579,0,0,0.68,1904.36,106.743)">
                    <path d="M1075,373L1113,423" style="fill:none;stroke:white;stroke-width:5.08px;"/>
                </g>
                <g transform="matrix(-0.684211,0,0,0.74,1963.94,90.3633)">
                    <path d="M1075,373L1113,423" style="fill:none;stroke:white;stroke-width:4.68px;"/>
                </g>
                <g transform="matrix(1.15789,0,0,1.19,-42.3195,-44.4867)">
                    <path d="M1075,373L1113,423" style="fill:none;stroke:white;stroke-width:2.84px;"/>
                </g>
                <g transform="matrix(1.15789,0,0,1.2,-40.3195,-34.7167)">
                    <path d="M1075,373L1113,423" style="fill:none;stroke:white;stroke-width:2.83px;"/>
                </g>
                <g transform="matrix(1,0,0,1,129.417,-7.11667)">
                    <path d="M1130,592.913L1108,371" style="fill:none;stroke:white;stroke-width:4.17px;"/>
                </g>
                <g transform="matrix(1,0,0,1,129.417,-7.11667)">
                    <path d="M1066,371L1107,592" style="fill:none;stroke:white;stroke-width:4.17px;"/>
                </g>
                <g transform="matrix(1,0,0,1,129.417,-7.11667)">
                    <path d="M1107,351L1107,371" style="fill:none;stroke:white;stroke-width:4.17px;"/>
                </g>
                <g transform="matrix(0.541284,0,0,0.5,636.335,151.383)">
                    <path d="M1092,313L1201,351" style="fill:none;stroke:white;stroke-width:8px;"/>
                </g>
                <g transform="matrix(-0.477064,0,0,0.473684,1806.37,177.62)">
                    <path d="M1092,313L1201,351" style="fill:none;stroke:white;stroke-width:8.76px;"/>
                </g>
                <g transform="matrix(1,0,0,1,129.417,-7.11667)">
                    <path d="M1139,273C1139.06,291.837 1149.28,300.519 1154.5,313" style="fill:none;stroke:white;stroke-width:2.08px;"/>
                </g>
            </g>
        </g>
    </g>
    <g id="Laterne-1" serif:id="Laterne 1" transform="matrix(1,0,0,1,381.54,95.2601)">
        <g id="Kette1" transform="matrix(1,0,0,1,-5,-178)">
            <g transform="matrix(1.11111,0,0,1,-599.004,-1498.1)">
                <path d="M1134,1931L1143,1940L1143,1949L1134,1940L1134,1931" style="fill:white;"/>
            </g>
            <g transform="matrix(1.11111,0,0,1,-599.004,-1487.1)">
                <path d="M1134,1931L1143,1940L1143,1944L1134,1940L1134,1931" style="fill:white;"/>
            </g>
            <g transform="matrix(1.11111,0,0,1,-599.004,-1509.1)">
                <path d="M1134,1931L1143,1940L1143,1949L1134,1940L1134,1931" style="fill:white;"/>
            </g>
            <g transform="matrix(1.11111,0,0,1,-599.004,-1520.1)">
                <path d="M1134,1931L1143,1940L1143,1949L1134,1940L1134,1931" style="fill:white;"/>
            </g>
            <g transform="matrix(1.11111,0,0,1,-599.004,-1531.1)">
                <path d="M1134,1931L1143,1940L1143,1949L1134,1940L1134,1931" style="fill:white;"/>
            </g>
            <g transform="matrix(1.11111,0,0,1,-599.004,-1542.1)">
                <path d="M1134,1931L1143,1940L1143,1949L1134,1940L1134,1931" style="fill:white;"/>
            </g>
            <g transform="matrix(1.11111,0,0,1,-599.004,-1553.1)">
                <path d="M1134,1931L1143,1940L1143,1949L1134,1940L1134,1931" style="fill:white;"/>
            </g>
            <g transform="matrix(1.11111,0,0,1,-599.004,-1564.1)">
                <path d="M1134,1931L1143,1940L1143,1949L1134,1940L1134,1931" style="fill:white;"/>
            </g>
            <g transform="matrix(1.11111,0,0,1,-599.004,-1575.1)">
                <path d="M1134,1931L1143,1940L1143,1949L1134,1940L1134,1931" style="fill:white;"/>
            </g>
            <g transform="matrix(1.11111,0,0,1,-599.004,-1587.1)">
                <path d="M1134,1931L1143,1940L1143,1949L1134,1940L1134,1931" style="fill:white;"/>
            </g>
            <g transform="matrix(1.11111,0,0,1,-599.004,-1598.1)">
                <path d="M1134,1931L1143,1940L1143,1949L1134,1940L1134,1931" style="fill:white;"/>
            </g>
            <g transform="matrix(1.11111,0,0,1,-599.004,-1609.1)">
                <path d="M1134,1931L1143,1940L1143,1949L1134,1940L1134,1931" style="fill:white;"/>
            </g>
            <g transform="matrix(1.11111,0,0,1,-599.004,-1620.1)">
                <path d="M1134,1931L1143,1940L1143,1949L1134,1940L1134,1931" style="fill:white;"/>
            </g>
            <g transform="matrix(1.11111,0,0,1,-599.004,-1632.1)">
                <path d="M1134,1931L1143,1940L1143,1949L1134,1940L1134,1931" style="fill:white;"/>
            </g>
            <g transform="matrix(1.11111,0,0,1,-599.004,-1643.1)">
                <path d="M1134,1931L1143,1940L1143,1949L1134,1940L1134,1931" style="fill:white;"/>
            </g>
            <g transform="matrix(1.11111,0,0,1,-599.004,-1654.1)">
                <path d="M1134,1931L1143,1940L1143,1949L1134,1940L1134,1931" style="fill:white;"/>
            </g>
            <g transform="matrix(1.11111,0,0,1,-599.004,-1665.1)">
                <path d="M1134,1931L1143,1940L1143,1949L1134,1940L1134,1931" style="fill:white;"/>
            </g>
        </g>
        <g id="Laterne1" transform="matrix(1,0,0,1,-5,-178)">
            <g id="ohne-füllung" serif:id="ohne füllung" transform="matrix(1,0,0,1,5,178)">
                <g transform="matrix(1,0,0,1,-477.004,-1678.1)">
                    <path d="M1056,2091C1066.32,2079.21 1075.35,2081.45 1087,2092.36" style="fill:none;stroke:white;stroke-width:2.08px;stroke-linejoin:miter;stroke-miterlimit:1;"/>
                </g>
                <g transform="matrix(1,0,0,1,-477.004,-1678.1)">
                    <path d="M1058,2082C1075.01,2063.16 1082.55,2063.91 1089,2082" style="fill:none;stroke:white;stroke-width:2.08px;stroke-linejoin:miter;stroke-miterlimit:1;"/>
                </g>
                <g transform="matrix(1,0,0,1,-477.004,-1678.1)">
                    <path d="M1071,2102C1065.76,2081.66 1077.13,2062.35 1108,2042" style="fill:none;stroke:white;stroke-width:2.92px;stroke-linejoin:miter;stroke-miterlimit:1;"/>
                </g>
                <g transform="matrix(-1,0,0,1,1798,-1678.1)">
                    <path d="M1056,2091C1066.32,2079.21 1075.35,2081.45 1087,2092.36" style="fill:none;stroke:white;stroke-width:2.08px;stroke-linejoin:miter;stroke-miterlimit:1;"/>
                </g>
                <g transform="matrix(-1,0,0,1,1798,-1678.1)">
                    <path d="M1058,2082C1075.01,2063.16 1082.55,2063.91 1089,2082" style="fill:none;stroke:white;stroke-width:2.08px;stroke-linejoin:miter;stroke-miterlimit:1;"/>
                </g>
                <g transform="matrix(-1,0,0,1,1798,-1678.1)">
                    <path d="M1071,2102C1065.76,2081.66 1077.13,2062.35 1108,2042" style="fill:none;stroke:white;stroke-width:2.92px;stroke-linejoin:miter;stroke-miterlimit:1;"/>
                </g>
                <g transform="matrix(1,0,0,1,-477.004,-1678.1)">
                    <path d="M1137.5,2016C1110.55,2035.24 1092.06,2055.06 1089,2102" style="fill:none;stroke:white;stroke-width:8.33px;stroke-linejoin:miter;stroke-miterlimit:1;"/>
                </g>
                <g transform="matrix(-1,0,0,1,1798,-1678.1)">
                    <path d="M1137.5,2016C1110.55,2035.24 1092.06,2055.06 1089,2102" style="fill:none;stroke:white;stroke-width:8.33px;stroke-linejoin:miter;stroke-miterlimit:1;"/>
                </g>
                <g transform="matrix(1,0,0,1,-477.004,-1678.1)">
                    <path d="M1089,2156C1121.77,2191.05 1153.94,2191.53 1185.5,2156" style="fill:none;stroke:white;stroke-width:2.08px;stroke-linejoin:miter;stroke-miterlimit:1;"/>
                </g>
                <g transform="matrix(1,0,0,1,-477.004,-1678.1)">
                    <path d="M1089,2146.03C1121.66,2186.61 1154,2187.46 1186,2146.03" style="fill:none;stroke:white;stroke-width:2.08px;stroke-linejoin:miter;stroke-miterlimit:1;"/>
                </g>
                <g transform="matrix(1,0,0,1,-477.004,-1678.1)">
                    <path d="M1089,2121.92C1089,2121.92 1131.84,2200.7 1186,2121.92" style="fill:none;stroke:white;stroke-width:2.08px;stroke-linejoin:miter;stroke-miterlimit:1;"/>
                </g>
                <g transform="matrix(1,0,0,1,-477.004,-1678.1)">
                    <path d="M1137,2260.08C1137.21,2259.62 1132.16,2268.88 1121.4,2279.45C1113.39,2287.32 1107.13,2298.2 1112,2308" style="fill:none;stroke:white;stroke-width:2.08px;stroke-linejoin:miter;stroke-miterlimit:1;"/>
                </g>
                <g transform="matrix(1,0,0,1,-477.004,-1678.1)">
                    <path d="M1069,2275.35C1071.76,2274.25 1057.21,2291.2 1058,2308" style="fill:none;stroke:white;stroke-width:2.08px;stroke-linejoin:miter;stroke-miterlimit:1;"/>
                </g>
                <g transform="matrix(-1,0,0,1,1661.31,-1678.1)">
                    <path d="M1069,2275.35C1071.76,2274.25 1057.21,2291.2 1058,2308" style="fill:none;stroke:white;stroke-width:2.08px;stroke-linejoin:miter;stroke-miterlimit:1;"/>
                </g>
                <g transform="matrix(1,0,0,1,-477.004,-1678.1)">
                    <path d="M1052,2304C1052,2304 1068.85,2288.69 1086,2305" style="fill:none;stroke:white;stroke-width:2.08px;stroke-linejoin:miter;stroke-miterlimit:1;"/>
                </g>
                <g transform="matrix(1,0,0,1,-477.004,-1678.1)">
                    <path d="M1052,2283C1052,2283 1059.54,2275.66 1069,2275.36C1074.39,2275.19 1080.4,2277.97 1086,2284" style="fill:none;stroke:white;stroke-width:2.08px;stroke-linejoin:miter;stroke-miterlimit:1;"/>
                </g>
                <g transform="matrix(1,0,0,1,-477.004,-1678.1)">
                    <path d="M1134,2331C1131.54,2345.2 1119.68,2355.12 1118.08,2371" style="fill:none;stroke:white;stroke-width:2.08px;stroke-linejoin:miter;stroke-miterlimit:1;"/>
                </g>
                <g transform="matrix(-1,0,0,1,1798.08,-1677.1)">
                    <path d="M1134,2331C1131.54,2345.2 1119.68,2355.12 1118.08,2371" style="fill:none;stroke:white;stroke-width:2.08px;stroke-linejoin:miter;stroke-miterlimit:1;"/>
                </g>
                <g transform="matrix(1,0,0,1,-477.004,-1678.1)">
                    <path d="M1120,2332C1119.07,2335.7 1119.71,2348.71 1123.43,2354.15C1132.88,2367.98 1136.42,2376.98 1138,2381.26" style="fill:none;stroke:white;stroke-width:2.08px;stroke-linejoin:miter;stroke-miterlimit:1;"/>
                </g>
                <g transform="matrix(-1,0,0,1,1797.99,-1679.1)">
                    <path d="M1120,2332C1119.07,2335.7 1119.71,2348.71 1123.43,2354.15C1132.88,2367.98 1136.42,2376.98 1138,2381.26" style="fill:none;stroke:white;stroke-width:2.08px;stroke-linejoin:miter;stroke-miterlimit:1;"/>
                </g>
                <g transform="matrix(1,0,0,1,-477.004,-1678.1)">
                    <path d="M1036,2332C1036,2332 1071.46,2339.24 1093,2358" style="fill:none;stroke:white;stroke-width:2.08px;stroke-linejoin:miter;stroke-miterlimit:1;"/>
                </g>
                <g transform="matrix(-1,0,0,1,1799,-1678.1)">
                    <path d="M1036,2332C1036,2332 1071.46,2339.24 1093,2358" style="fill:none;stroke:white;stroke-width:2.08px;stroke-linejoin:miter;stroke-miterlimit:1;"/>
                </g>
                <g transform="matrix(1,0,0,1,-477.004,-1678.1)">
                    <path d="M1191.86,2337C1191.86,2337 1197.14,2355.02 1156,2374" style="fill:none;stroke:white;stroke-width:8.33px;stroke-linejoin:miter;stroke-miterlimit:1;"/>
                </g>
                <g transform="matrix(-1,0,0,1,1797.08,-1678.1)">
                    <path d="M1191.86,2337C1191.86,2337 1197.14,2355.02 1156,2374" style="fill:none;stroke:white;stroke-width:8.33px;stroke-linejoin:miter;stroke-miterlimit:1;"/>
                </g>
                <g transform="matrix(1,0,0,1,-477.004,-1678.1)">
                    <path d="M1106,2332C1106,2332 1104.97,2377.76 1138,2382" style="fill:none;stroke:white;stroke-width:8.33px;stroke-linejoin:miter;stroke-miterlimit:1;"/>
                </g>
                <g transform="matrix(-1,0,0,1,1797.99,-1678.1)">
                    <path d="M1106,2332C1106,2332 1104.97,2377.76 1138,2382" style="fill:none;stroke:white;stroke-width:8.33px;stroke-linejoin:miter;stroke-miterlimit:1;"/>
                </g>
                <g transform="matrix(1,0,0,1,-477.004,-1678.1)">
                    <path d="M1052,2277C1052,2277 1069.59,2259.76 1086,2278" style="fill:none;stroke:white;stroke-width:2.08px;stroke-linejoin:miter;stroke-miterlimit:1;"/>
                </g>
                <g transform="matrix(1,0,0,-1,-477.004,2756.52)">
                    <path d="M1069,2275.35C1071.76,2274.25 1057.21,2291.2 1058,2308" style="fill:none;stroke:white;stroke-width:2.08px;stroke-linejoin:miter;stroke-miterlimit:1;"/>
                </g>
                <g transform="matrix(-1,0,0,-1,1661.31,2756.52)">
                    <path d="M1069,2275.35C1071.76,2274.25 1057.21,2291.2 1058,2308" style="fill:none;stroke:white;stroke-width:2.08px;stroke-linejoin:miter;stroke-miterlimit:1;"/>
                </g>
                <g transform="matrix(1,0,0,-1,-477.004,2756.52)">
                    <path d="M1052,2304C1052,2304 1068.85,2288.69 1086,2305" style="fill:none;stroke:white;stroke-width:2.08px;stroke-linejoin:miter;stroke-miterlimit:1;"/>
                </g>
                <g transform="matrix(1,0,0,-1,-477.004,2756.52)">
                    <path d="M1052,2283C1052,2283 1059.54,2275.66 1069,2275.36C1074.39,2275.19 1080.4,2277.97 1086,2284" style="fill:none;stroke:white;stroke-width:2.08px;stroke-linejoin:miter;stroke-miterlimit:1;"/>
                </g>
                <g transform="matrix(1,0,0,-1,-477.004,2756.52)">
                    <path d="M1052,2277C1052,2277 1069.59,2259.76 1086,2278" style="fill:none;stroke:white;stroke-width:2.08px;stroke-linejoin:miter;stroke-miterlimit:1;"/>
                </g>
                <g transform="matrix(-1,0,0,-1,1798,2756.52)">
                    <path d="M1069,2275.35C1071.76,2274.25 1057.21,2291.2 1058,2308" style="fill:none;stroke:white;stroke-width:2.08px;stroke-linejoin:miter;stroke-miterlimit:1;"/>
                </g>
                <g transform="matrix(1,0,0,-1,-340.323,2756.52)">
                    <path d="M1069,2275.35C1071.76,2274.25 1057.21,2291.2 1058,2308" style="fill:none;stroke:white;stroke-width:2.08px;stroke-linejoin:miter;stroke-miterlimit:1;"/>
                </g>
                <g transform="matrix(-1,0,0,-1,1798,2756.52)">
                    <path d="M1052,2304C1052,2304 1068.85,2288.69 1086,2305" style="fill:none;stroke:white;stroke-width:2.08px;stroke-linejoin:miter;stroke-miterlimit:1;"/>
                </g>
                <g transform="matrix(-1,0,0,-1,1798,2756.52)">
                    <path d="M1052,2283C1052,2283 1059.54,2275.66 1069,2275.36C1074.39,2275.19 1080.4,2277.97 1086,2284" style="fill:none;stroke:white;stroke-width:2.08px;stroke-linejoin:miter;stroke-miterlimit:1;"/>
                </g>
                <g transform="matrix(-1,0,0,-1,1798,2756.52)">
                    <path d="M1052,2277C1052,2277 1069.59,2259.76 1086,2278" style="fill:none;stroke:white;stroke-width:2.08px;stroke-linejoin:miter;stroke-miterlimit:1;"/>
                </g>
                <g transform="matrix(-1,0,0,1,1798,-1678.1)">
                    <path d="M1069,2275.35C1071.76,2274.25 1057.21,2291.2 1058,2308" style="fill:none;stroke:white;stroke-width:2.08px;stroke-linejoin:miter;stroke-miterlimit:1;"/>
                </g>
                <g transform="matrix(1,0,0,1,-340.323,-1678.1)">
                    <path d="M1069,2275.35C1071.76,2274.25 1057.21,2291.2 1058,2308" style="fill:none;stroke:white;stroke-width:2.08px;stroke-linejoin:miter;stroke-miterlimit:1;"/>
                </g>
                <g transform="matrix(-1,0,0,1,1798,-1678.1)">
                    <path d="M1052,2304C1052,2304 1068.85,2288.69 1086,2305" style="fill:none;stroke:white;stroke-width:2.08px;stroke-linejoin:miter;stroke-miterlimit:1;"/>
                </g>
                <g transform="matrix(-1,0,0,1,1798,-1678.1)">
                    <path d="M1052,2283C1052,2283 1059.54,2275.66 1069,2275.36C1074.39,2275.19 1080.4,2277.97 1086,2284" style="fill:none;stroke:white;stroke-width:2.08px;stroke-linejoin:miter;stroke-miterlimit:1;"/>
                </g>
                <g transform="matrix(-1,0,0,1,1798,-1678.1)">
                    <path d="M1052,2277C1052,2277 1069.59,2259.76 1086,2278" style="fill:none;stroke:white;stroke-width:2.08px;stroke-linejoin:miter;stroke-miterlimit:1;"/>
                </g>
                <g transform="matrix(1,0,0,1,-477.004,-1678.1)">
                    <path d="M1091,2287C1091,2287 1134.15,2226.42 1183,2287" style="fill:none;stroke:white;stroke-width:2.08px;stroke-linejoin:miter;stroke-miterlimit:1;"/>
                </g>
                <g transform="matrix(1,0,0,1,-477.004,-1684.1)">
                    <path d="M1091,2287C1091,2287 1134.15,2226.42 1183,2287" style="fill:none;stroke:white;stroke-width:2.08px;stroke-linejoin:miter;stroke-miterlimit:1;"/>
                </g>
                <g transform="matrix(1,0,0,1,-477.004,-1678.1)">
                    <path d="M1111,2269C1111,2269 1109.94,2277.24 1112.7,2283C1117.65,2293.34 1128.25,2303.58 1132,2308" style="fill:none;stroke:white;stroke-width:2.08px;stroke-linejoin:miter;stroke-miterlimit:1;"/>
                </g>
                <g transform="matrix(-1,0,0,1,1797.01,-1678.09)">
                    <path d="M1137,2260.08C1137.21,2259.62 1132.16,2268.88 1121.4,2279.45C1113.39,2287.32 1107.13,2298.2 1112,2308" style="fill:none;stroke:white;stroke-width:2.08px;stroke-linejoin:miter;stroke-miterlimit:1;"/>
                </g>
                <g transform="matrix(-1,0,0,1,1797.01,-1678.09)">
                    <path d="M1111,2269C1111,2269 1109.94,2277.24 1112.7,2283C1117.65,2293.34 1128.25,2303.58 1132,2308" style="fill:none;stroke:white;stroke-width:2.08px;stroke-linejoin:miter;stroke-miterlimit:1;"/>
                </g>
                <g transform="matrix(1,0,0,1,-477.004,-1815.1)">
                    <path d="M1137,2260.08C1137.21,2259.62 1132.16,2268.88 1121.4,2279.45C1113.39,2287.32 1107.13,2295.2 1112,2305" style="fill:none;stroke:white;stroke-width:2.08px;stroke-linejoin:miter;stroke-miterlimit:1;"/>
                </g>
                <g transform="matrix(-1,0,0,1,1797.5,-1814.6)">
                    <path d="M1137,2260.08C1137.21,2259.62 1132.16,2268.88 1121.4,2279.45C1113.39,2287.32 1107.13,2295.2 1112,2305" style="fill:none;stroke:white;stroke-width:2.08px;stroke-linejoin:miter;stroke-miterlimit:1;"/>
                </g>
                <g transform="matrix(1,0,0,1,-477.004,-1815.1)">
                    <path d="M1112.7,2262C1112.7,2262 1109.94,2277.24 1112.7,2283C1117.65,2293.34 1133.26,2307.58 1137.01,2312" style="fill:none;stroke:white;stroke-width:2.08px;stroke-linejoin:miter;stroke-miterlimit:1;"/>
                </g>
                <g transform="matrix(-1,0,0,1,1797.5,-1815.1)">
                    <path d="M1112.7,2262C1112.7,2262 1109.94,2277.24 1112.7,2283C1117.65,2293.34 1133.26,2307.58 1137.01,2312" style="fill:none;stroke:white;stroke-width:2.08px;stroke-linejoin:miter;stroke-miterlimit:1;"/>
                </g>
                <g transform="matrix(1,0,0,1,-477.004,-1678.1)">
                    <path d="M1111,2041C1109.8,2057.22 1116.16,2067.93 1122.62,2076.89C1129.87,2086.96 1133.69,2096.17 1135,2099" style="fill:none;stroke:white;stroke-width:2.92px;stroke-linejoin:miter;stroke-miterlimit:1;"/>
                </g>
                <g transform="matrix(-1,0,0,1,1797.35,-1679.1)">
                    <path d="M1111,2041C1109.8,2057.22 1116.16,2067.93 1122.62,2076.89C1129.87,2086.96 1133.69,2096.17 1135,2099" style="fill:none;stroke:white;stroke-width:2.92px;stroke-linejoin:miter;stroke-miterlimit:1;"/>
                </g>
                <g transform="matrix(1,0,0,1,-477.004,-1678.1)">
                    <path d="M1137.5,2016C1127.02,2024.13 1110.58,2036.8 1097.69,2042.96C1063.67,2059.2 1051.28,2079.09 1054,2102" style="fill:none;stroke:white;stroke-width:8.33px;stroke-linejoin:miter;stroke-miterlimit:1;"/>
                </g>
                <g transform="matrix(-1,0,0,1,1798,-1678.1)">
                    <path d="M1137.5,2016C1127.02,2024.13 1110.58,2036.8 1097.69,2042.96C1063.67,2059.2 1051.28,2079.09 1054,2102" style="fill:none;stroke:white;stroke-width:8.33px;stroke-linejoin:miter;stroke-miterlimit:1;"/>
                </g>
                <g transform="matrix(1,0,0,1,-477.004,-1678.1)">
                    <path d="M1140.5,2023.5C1135.27,2030.85 1129.22,2043.26 1124.7,2050.15C1113.41,2067.32 1106.55,2082.73 1113,2098" style="fill:none;stroke:white;stroke-width:2.92px;stroke-linejoin:miter;stroke-miterlimit:1;"/>
                </g>
                <g transform="matrix(-1,0,0,1,1797.01,-1677.1)">
                    <path d="M1140.5,2023.5C1135.27,2030.85 1129.22,2043.26 1124.7,2050.15C1113.41,2067.32 1106.55,2082.73 1113,2098" style="fill:none;stroke:white;stroke-width:2.92px;stroke-linejoin:miter;stroke-miterlimit:1;"/>
                </g>
                <g transform="matrix(1,0,0,1,-477.004,-1678.1)">
                    <path d="M1094,2091C1107.41,2077.11 1122.68,2072.73 1137.5,2072.67C1153.49,2072.61 1168.95,2077.89 1181,2091" style="fill:none;stroke:white;stroke-width:2.92px;stroke-linejoin:miter;stroke-miterlimit:1;"/>
                </g>
                <g transform="matrix(1,0,0,1,-477.004,-1678.1)">
                    <path d="M1094,2080C1119.08,2039.41 1155.96,2038.33 1179.43,2080" style="fill:none;stroke:white;stroke-width:2.92px;stroke-linejoin:miter;stroke-miterlimit:1;"/>
                </g>
                <g transform="matrix(1.01604,0,0,1,-496.769,-1678.1)">
                    <path d="M1045,2311L1232,2311" style="fill:none;stroke:white;stroke-width:9.09px;stroke-miterlimit:1;"/>
                </g>
                <g transform="matrix(1.11765,0,0,1,-611.945,-1657.1)">
                    <path d="M1045,2311L1232,2311" style="fill:none;stroke:white;stroke-width:8.64px;stroke-miterlimit:1;"/>
                </g>
                <g transform="matrix(1.01604,0,0,1,-496.269,-1867.18)">
                    <path d="M1045,2311L1232,2311" style="fill:none;stroke:white;stroke-width:9.09px;stroke-miterlimit:1;"/>
                </g>
                <g transform="matrix(1.11765,0,0,1,-611.945,-1887.18)">
                    <path d="M1045,2311L1232,2311" style="fill:none;stroke:white;stroke-width:8.64px;stroke-miterlimit:1;"/>
                </g>
                <g transform="matrix(0.15508,0,0,1,483.937,-1972.18)">
                    <path d="M1045,2311L1232,2311" style="fill:none;stroke:white;stroke-width:12.81px;stroke-miterlimit:1;"/>
                </g>
                <g transform="matrix(3.6,0,0,1.44444,-3370.2,-2539.33)">
                    <ellipse cx="1119.5" cy="1958" rx="2.5" ry="9" style="fill:none;stroke:white;stroke-width:1.52px;stroke-linejoin:miter;stroke-miterlimit:1;"/>
                </g>
            </g>
            <g id="mit-Füllung2" serif:id="mit Füllung" transform="matrix(1,0,0,1,5,178)">
                <g transform="matrix(0.764706,0,0,0.941176,-208.975,-1558.99)">
                    <rect x="1129" y="1991" width="16" height="17" style="fill:white;stroke:white;stroke-width:9.72px;stroke-miterlimit:1;"/>
                </g>
                <g transform="matrix(0.764706,0,0,0.941176,-208.975,-1152.68)">
                    <rect x="1129" y="1991" width="16" height="17" style="fill:white;stroke:white;stroke-width:9.72px;stroke-miterlimit:1;"/>
                </g>
                <g transform="matrix(0.639706,0,0,0.705882,-66.9672,-1108.52)">
                    <rect x="1129" y="1991" width="16" height="17" style="fill:white;stroke:white;stroke-width:6.19px;stroke-miterlimit:1;"/>
                </g>
                <g transform="matrix(0.869824,0.493362,-0.8904,1.56982,1732.81,-3509.47)">
                    <rect x="1034" y="2315" width="3" height="10" style="fill:white;stroke:white;stroke-width:0.69px;stroke-linejoin:miter;stroke-miterlimit:1;"/>
                </g>
                <g transform="matrix(0.869824,0.493362,-0.8904,1.56982,1773.81,-3509.47)">
                    <rect x="1034" y="2315" width="3" height="10" style="fill:white;stroke:white;stroke-width:0.69px;stroke-linejoin:miter;stroke-miterlimit:1;"/>
                </g>
                <g transform="matrix(-0.869824,0.493362,0.8904,1.56982,-453.242,-3509.47)">
                    <rect x="1034" y="2315" width="3" height="10" style="fill:white;stroke:white;stroke-width:0.69px;stroke-linejoin:miter;stroke-miterlimit:1;"/>
                </g>
                <g transform="matrix(-0.869824,0.493362,0.8904,1.56982,-412.242,-3509.47)">
                    <rect x="1034" y="2315" width="3" height="10" style="fill:white;stroke:white;stroke-width:0.69px;stroke-linejoin:miter;stroke-miterlimit:1;"/>
                </g>
                <g transform="matrix(-0.869824,0.493362,0.8904,1.56982,-596.242,-3717.61)">
                    <rect x="1034" y="2315" width="3" height="10" style="fill:white;stroke:white;stroke-width:0.69px;stroke-linejoin:miter;stroke-miterlimit:1;"/>
                </g>
                <g transform="matrix(-0.869824,0.493362,0.8904,1.56982,-565.242,-3717.61)">
                    <rect x="1034" y="2315" width="3" height="10" style="fill:white;stroke:white;stroke-width:0.69px;stroke-linejoin:miter;stroke-miterlimit:1;"/>
                </g>
                <g transform="matrix(-0.869824,0.493362,0.8904,1.56982,-520.242,-3717.61)">
                    <rect x="1034" y="2315" width="3" height="10" style="fill:white;stroke:white;stroke-width:0.69px;stroke-linejoin:miter;stroke-miterlimit:1;"/>
                </g>
                <g transform="matrix(0.869824,0.493362,-0.8904,1.56982,1841.81,-3719.11)">
                    <rect x="1034" y="2315" width="3" height="10" style="fill:white;stroke:white;stroke-width:0.69px;stroke-linejoin:miter;stroke-miterlimit:1;"/>
                </g>
                <g transform="matrix(0.869824,0.493362,-0.8904,1.56982,1885.81,-3717.61)">
                    <rect x="1034" y="2315" width="3" height="10" style="fill:white;stroke:white;stroke-width:0.69px;stroke-linejoin:miter;stroke-miterlimit:1;"/>
                </g>
                <g transform="matrix(0.869824,0.493362,-0.8904,1.56982,1917.81,-3717.61)">
                    <rect x="1034" y="2315" width="3" height="10" style="fill:white;stroke:white;stroke-width:0.69px;stroke-linejoin:miter;stroke-miterlimit:1;"/>
                </g>
                <g transform="matrix(1,0,0,1,-477.004,-1678.1)">
                    <rect x="1044.79" y="2320" width="185" height="3" style="fill:white;stroke:white;stroke-width:1px;stroke-linejoin:miter;stroke-miterlimit:1;"/>
                </g>
                <g transform="matrix(1,0,0,1,-477.004,-1887.74)">
                    <rect x="1044.79" y="2320" width="185" height="3" style="fill:white;stroke:white;stroke-width:1px;stroke-linejoin:miter;stroke-miterlimit:1;"/>
                </g>
                <g transform="matrix(0.93645,0,0,1,-404.608,-1908.74)">
                    <rect x="1044.79" y="2320" width="185" height="3" style="fill:white;stroke:white;stroke-width:1.03px;stroke-linejoin:miter;stroke-miterlimit:1;"/>
                </g>
                <g transform="matrix(1,0,0,1,-477.004,-1678.1)">
                    <path d="M1113,2038C1129.48,2026.84 1145.19,2026.25 1160,2038L1149,2025L1137.5,2017L1122,2027L1113,2038Z" style="fill:white;stroke:white;stroke-width:2.92px;stroke-linejoin:miter;stroke-miterlimit:1;"/>
                </g>
                <g transform="matrix(1.45848,0,0,2.46154,-996.798,-5170.57)">
                    <path d="M1136,2385.28C1143.27,2385.48 1149.43,2381.39 1149,2386.5C1148.7,2390.08 1143.17,2393 1136,2393C1128.83,2393 1123.56,2390.04 1123,2386.5C1122.15,2381.12 1128.48,2385.07 1136,2385.28Z" style="fill:white;stroke:white;stroke-width:4.12px;stroke-linejoin:miter;stroke-miterlimit:1;"/>
                </g>
                <g transform="matrix(0.4,0,0,1,172.196,-1681.1)">
                    <rect x="1047" y="2121.92" width="5" height="189.076" style="fill:white;stroke:white;stroke-width:0.55px;stroke-linejoin:miter;stroke-miterlimit:1;"/>
                </g>
                <g transform="matrix(0.4,0,0,1,309.196,-1678.1)">
                    <rect x="1047" y="2121.92" width="5" height="189.076" style="fill:white;stroke:white;stroke-width:0.55px;stroke-linejoin:miter;stroke-miterlimit:1;"/>
                </g>
                <g transform="matrix(1.4,0,0,1,-896.804,-1678.1)">
                    <rect x="1047" y="2121.92" width="5" height="189.076" style="fill:white;stroke:white;stroke-width:0.34px;stroke-linejoin:miter;stroke-miterlimit:1;"/>
                </g>
                <g transform="matrix(1.4,0,0,1,-857.804,-1678.1)">
                    <rect x="1047" y="2121.92" width="5" height="189.076" style="fill:white;stroke:white;stroke-width:0.34px;stroke-linejoin:miter;stroke-miterlimit:1;"/>
                </g>
                <g transform="matrix(1.4,0,0,1,-760.804,-1678.1)">
                    <rect x="1047" y="2121.92" width="5" height="189.076" style="fill:white;stroke:white;stroke-width:0.34px;stroke-linejoin:miter;stroke-miterlimit:1;"/>
                </g>
                <g transform="matrix(1.4,0,0,1,-721.804,-1678.1)">
                    <rect x="1047" y="2121.92" width="5" height="189.076" style="fill:white;stroke:white;stroke-width:0.34px;stroke-linejoin:miter;stroke-miterlimit:1;"/>
                </g>
            </g>
        </g>
    </g>
    <g transform="matrix(0.0800805,0,0,0.0826248,1048.97,174.317)">
        <path d="M53.814,97.271C49.953,97.271 46.053,97.041 42.259,96.579C27.982,94.838 17.019,90.127 12.179,83.653C5.04,74.103 4.637,65.941 5.555,60.775C6.641,54.671 10.247,49.226 15.451,45.84C18.018,44.169 19.453,42.42 19.602,40.78C19.725,39.439 19.026,38.039 17.527,36.619C17.465,36.559 17.415,36.512 17.38,36.477L19.922,33.937L19.997,34.009C22.911,36.767 23.336,39.39 23.182,41.104C22.927,43.918 20.985,46.523 17.411,48.851C13.038,51.695 10.007,56.271 9.094,61.402C7.954,67.809 10.017,74.756 15.057,81.5C19.249,87.109 29.581,91.411 42.694,93.01C60.012,95.121 77.504,92.178 85.234,85.848C98.875,74.677 96.516,61.714 95.25,54.751C95.171,54.33 95.101,53.937 95.038,53.572C94.039,47.77 89.142,36.316 86.085,35.259C85.903,35.197 85.814,35.179 85.578,35.393C80.7,39.794 76.811,41.989 63.388,46.316C55.583,48.831 50.975,48.759 49.301,46.097C48.09,44.174 48.866,41.52 51.43,38.817C53.765,36.358 58.128,26.672 55.984,19.069C54.682,14.445 51.153,11.331 45.497,9.815C27.177,4.902 18.412,19.917 18.327,20.068L15.202,18.295C15.304,18.112 17.787,13.8 22.866,10.17C27.574,6.805 35.486,3.41 46.428,6.345C51.216,7.629 57.362,10.709 59.442,18.094C61.942,26.949 57.25,37.902 54.039,41.29C52.533,42.877 52.272,43.973 52.349,44.192C52.353,44.194 53.909,45.596 62.288,42.896C75.892,38.511 78.96,36.526 83.172,32.725C84.349,31.664 85.8,31.358 87.261,31.863C92.973,33.838 97.823,48.555 98.581,52.959C98.642,53.314 98.712,53.697 98.785,54.105C100.086,61.25 102.793,76.114 87.513,88.626C83.127,92.216 76.259,94.841 67.654,96.22C63.286,96.92 58.581,97.271 53.814,97.271Z" style="fill:white;fill-rule:nonzero;"/>
    </g>
    <g transform="matrix(0.0800805,0,0,0.0826248,1048.97,174.317)">
        <path d="M18.088,36.735C15.532,36.735 9.063,36.16 4.193,30.839C0.649,26.964 -0.687,23.695 0.332,21.383C0.957,19.966 2.381,19.154 4.239,19.154C4.75,19.154 5.301,19.214 5.878,19.331C6.529,19.463 7.248,19.53 8.013,19.53C11.555,19.53 14.901,18.167 15.657,17.697L18.717,15.79L18.396,19.382C18.331,20.147 18.326,22.617 19.138,23.833C19.283,24.051 19.489,24.33 19.726,24.652C21.15,26.585 23.301,29.505 22.72,32.563C22.424,34.13 21.466,35.432 19.875,36.431L19.512,36.66L19.084,36.7C19.044,36.704 18.681,36.735 18.088,36.735ZM3.612,22.852C3.503,23.181 3.737,25.018 6.844,28.415C10.747,32.681 16.007,33.143 18.087,33.143C18.173,33.143 18.251,33.142 18.321,33.141C19.061,32.569 19.154,32.074 19.188,31.896C19.476,30.376 17.821,28.127 16.832,26.784C16.568,26.426 16.339,26.116 16.148,25.829C15.37,24.663 15.02,23.199 14.872,21.928C12.955,22.574 10.446,23.125 8.013,23.125C7.006,23.125 6.047,23.033 5.16,22.853C4.819,22.783 4.508,22.748 4.238,22.748C3.835,22.748 3.661,22.825 3.612,22.852Z" style="fill:white;fill-rule:nonzero;"/>
    </g>
    <g transform="matrix(0.0800805,0,0,0.0826248,1048.97,174.317)">
        <circle cx="31.047" cy="21.272" r="2.665" style="fill:white;"/>
    </g>
    <g transform="matrix(0.0800805,0,0,0.0826248,1048.97,174.317)">
        <circle cx="30.113" cy="20.509" r="1.008" style="fill:white;"/>
        <path d="M30.113,21.696C29.458,21.696 28.925,21.164 28.925,20.509C28.925,19.854 29.458,19.321 30.113,19.321C30.767,19.321 31.301,19.854 31.301,20.509C31.301,21.164 30.768,21.696 30.113,21.696ZM30.113,19.681C29.656,19.681 29.284,20.053 29.284,20.509C29.284,20.965 29.656,21.338 30.113,21.338C30.569,21.338 30.941,20.966 30.941,20.509C30.941,20.052 30.569,19.681 30.113,19.681Z" style="fill:white;fill-rule:nonzero;"/>
    </g>
    <g transform="matrix(1.67568,0,0,1,1199.18,-209.911)">
        <ellipse cx="33" cy="161.5" rx="296" ry="259.5" style="fill:none;stroke:white;stroke-width:15.1px;stroke-dasharray:0,22.65,0,0;"/>
    </g>
    <g transform="matrix(1.67568,0,0,1,2184.54,-229.356)">
        <ellipse cx="33" cy="161.5" rx="296" ry="259.5" style="fill:none;stroke:white;stroke-width:15.1px;stroke-dasharray:0,22.65,0,0;"/>
    </g>
    <g transform="matrix(1.67568,0,0,1,3163.79,-224.393)">
        <ellipse cx="33" cy="161.5" rx="296" ry="259.5" style="fill:none;stroke:white;stroke-width:15.1px;stroke-dasharray:0,22.65,0,0;"/>
    </g>
    <g transform="matrix(1.4897,0,0,1.42322,1494.63,-419.819)">
        <ellipse cx="136.5" cy="174.42" rx="315.5" ry="306.58" style="fill:none;stroke:white;stroke-width:8.58px;stroke-dasharray:0,12.87,0,0;"/>
    </g>
    <g transform="matrix(1.4897,0,0,1.42322,2080.63,-179.922)">
        <ellipse cx="136.5" cy="174.42" rx="315.5" ry="306.58" style="fill:none;stroke:white;stroke-width:8.58px;stroke-dasharray:0,12.87,0,0;"/>
    </g>
    <g transform="matrix(1.4897,0,0,1.42322,2809.04,-372.994)">
        <ellipse cx="136.5" cy="174.42" rx="315.5" ry="306.58" style="fill:none;stroke:white;stroke-width:8.58px;stroke-dasharray:0,12.87,0,0;"/>
    </g>
    <g transform="matrix(1.4897,0,0,1.42322,754.631,-338.819)">
        <ellipse cx="136.5" cy="174.42" rx="315.5" ry="306.58" style="fill:none;stroke:white;stroke-width:8.58px;stroke-dasharray:0,12.87,0,0;"/>
    </g>
    <g transform="matrix(1.67568,0,0,1,523.596,-229.356)">
        <ellipse cx="33" cy="161.5" rx="296" ry="259.5" style="fill:none;stroke:white;stroke-width:15.1px;stroke-dasharray:0,22.65,0,0;"/>
    </g>
    <g transform="matrix(1.67568,0,0,1,-415.435,-299.564)">
        <ellipse cx="33" cy="161.5" rx="296" ry="259.5" style="fill:none;stroke:white;stroke-width:15.1px;stroke-dasharray:0,22.65,0,0;"/>
    </g>
    <g transform="matrix(1.4897,0,0,1.42322,-36.7689,-311.131)">
        <ellipse cx="136.5" cy="174.42" rx="315.5" ry="306.58" style="fill:none;stroke:white;stroke-width:8.58px;stroke-dasharray:0,12.87,0,0;"/>
    </g>
    <g transform="matrix(1.40678,0,0,1.47632,210.246,-74.8702)">
        <path d="M461.5,319L468.123,338.348L489.556,338.348L472.217,350.305L478.84,369.652L461.5,357.695L444.16,369.652L450.783,350.305L433.444,338.348L454.877,338.348L461.5,319Z" style="fill:white;stroke:white;stroke-width:0.69px;stroke-linecap:butt;"/>
    </g>
    <g transform="matrix(1,0,0,1,766.475,1.42251)">
        <path d="M461.5,319L468.123,338.348L489.556,338.348L472.217,350.305L478.84,369.652L461.5,357.695L444.16,369.652L450.783,350.305L433.444,338.348L454.877,338.348L461.5,319Z" style="fill:white;stroke:white;stroke-width:1px;stroke-linecap:butt;"/>
    </g>
    <g transform="matrix(1,0,0,1,738.419,349.974)">
        <path d="M461.5,319L468.123,338.348L489.556,338.348L472.217,350.305L478.84,369.652L461.5,357.695L444.16,369.652L450.783,350.305L433.444,338.348L454.877,338.348L461.5,319Z" style="fill:white;stroke:white;stroke-width:1px;stroke-linecap:butt;"/>
    </g>
    <g transform="matrix(1,0,0,1,254.975,400.626)">
        <path d="M461.5,319L468.123,338.348L489.556,338.348L472.217,350.305L478.84,369.652L461.5,357.695L444.16,369.652L450.783,350.305L433.444,338.348L454.877,338.348L461.5,319Z" style="fill:white;stroke:white;stroke-width:1px;stroke-linecap:butt;"/>
    </g>
    <g transform="matrix(0.491525,0,0,0.491525,433.636,411.83)">
        <path d="M461.5,319L468.123,338.348L489.556,338.348L472.217,350.305L478.84,369.652L461.5,357.695L444.16,369.652L450.783,350.305L433.444,338.348L454.877,338.348L461.5,319Z" style="fill:white;stroke:white;stroke-width:2.03px;stroke-linecap:butt;"/>
    </g>
    <g transform="matrix(0.491525,0,0,0.491525,653.636,482.83)">
        <path d="M461.5,319L468.123,338.348L489.556,338.348L472.217,350.305L478.84,369.652L461.5,357.695L444.16,369.652L450.783,350.305L433.444,338.348L454.877,338.348L461.5,319Z" style="fill:white;stroke:white;stroke-width:2.03px;stroke-linecap:butt;"/>
    </g>
    <g transform="matrix(0.491525,0,0,0.491525,1235.92,215.798)">
        <path d="M461.5,319L468.123,338.348L489.556,338.348L472.217,350.305L478.84,369.652L461.5,357.695L444.16,369.652L450.783,350.305L433.444,338.348L454.877,338.348L461.5,319Z" style="fill:white;stroke:white;stroke-width:2.03px;stroke-linecap:butt;"/>
    </g>
    <g transform="matrix(0.491525,0,0,0.491525,1615.92,136.798)">
        <path d="M461.5,319L468.123,338.348L489.556,338.348L472.217,350.305L478.84,369.652L461.5,357.695L444.16,369.652L450.783,350.305L433.444,338.348L454.877,338.348L461.5,319Z" style="fill:white;stroke:white;stroke-width:2.03px;stroke-linecap:butt;"/>
    </g>
    <g transform="matrix(0.491525,0,0,0.491525,2336.81,491.758)">
        <path d="M461.5,319L468.123,338.348L489.556,338.348L472.217,350.305L478.84,369.652L461.5,357.695L444.16,369.652L450.783,350.305L433.444,338.348L454.877,338.348L461.5,319Z" style="fill:white;stroke:white;stroke-width:2.03px;stroke-linecap:butt;"/>
    </g>
    <g transform="matrix(0.491525,0,0,0.491525,1263.5,804.798)">
        <path d="M461.5,319L468.123,338.348L489.556,338.348L472.217,350.305L478.84,369.652L461.5,357.695L444.16,369.652L450.783,350.305L433.444,338.348L454.877,338.348L461.5,319Z" style="fill:white;stroke:white;stroke-width:2.03px;stroke-linecap:butt;"/>
    </g>
    <g transform="matrix(0.491525,0,0,0.491525,1009.92,779.901)">
        <path d="M461.5,319L468.123,338.348L489.556,338.348L472.217,350.305L478.84,369.652L461.5,357.695L444.16,369.652L450.783,350.305L433.444,338.348L454.877,338.348L461.5,319Z" style="fill:white;stroke:white;stroke-width:2.03px;stroke-linecap:butt;"/>
    </g>
    <g transform="matrix(1.15254,0,0,1.125,387.076,599.874)">
        <path d="M461.5,319L468.123,338.348L489.556,338.348L472.217,350.305L478.84,369.652L461.5,357.695L444.16,369.652L450.783,350.305L433.444,338.348L454.877,338.348L461.5,319Z" style="fill:white;stroke:white;stroke-width:0.88px;stroke-linecap:butt;"/>
    </g>
    <g transform="matrix(1.15254,0,0,1.125,-397.659,190.983)">
        <path d="M461.5,319L468.123,338.348L489.556,338.348L472.217,350.305L478.84,369.652L461.5,357.695L444.16,369.652L450.783,350.305L433.444,338.348L454.877,338.348L461.5,319Z" style="fill:white;stroke:white;stroke-width:0.88px;stroke-linecap:butt;"/>
    </g>
    <g transform="matrix(1.15254,0,0,1.125,-332.987,557.936)">
        <path d="M461.5,319L468.123,338.348L489.556,338.348L472.217,350.305L478.84,369.652L461.5,357.695L444.16,369.652L450.783,350.305L433.444,338.348L454.877,338.348L461.5,319Z" style="fill:white;stroke:white;stroke-width:0.88px;stroke-linecap:butt;"/>
    </g>
    <g transform="matrix(1,0,0,1,1424.97,154.401)">
        <path d="M461.5,319L468.123,338.348L489.556,338.348L472.217,350.305L478.84,369.652L461.5,357.695L444.16,369.652L450.783,350.305L433.444,338.348L454.877,338.348L461.5,319Z" style="fill:white;stroke:white;stroke-width:1px;stroke-linecap:butt;"/>
    </g>
    <g transform="matrix(1,0,0,1,1127.86,519.749)">
        <path d="M461.5,319L468.123,338.348L489.556,338.348L472.217,350.305L478.84,369.652L461.5,357.695L444.16,369.652L450.783,350.305L433.444,338.348L454.877,338.348L461.5,319Z" style="fill:white;stroke:white;stroke-width:1px;stroke-linecap:butt;"/>
    </g>
    <g transform="matrix(1.37288,0,0,1.37288,962.778,-162.2)">
        <path d="M461.5,319L468.123,338.348L489.556,338.348L472.217,350.305L478.84,369.652L461.5,357.695L444.16,369.652L450.783,350.305L433.444,338.348L454.877,338.348L461.5,319Z" style="fill:white;stroke:white;stroke-width:0.73px;stroke-linecap:butt;"/>
    </g>
    <g transform="matrix(1.37288,0,0,1.37288,1594.65,523.646)">
        <path d="M461.5,319L468.123,338.348L489.556,338.348L472.217,350.305L478.84,369.652L461.5,357.695L444.16,369.652L450.783,350.305L433.444,338.348L454.877,338.348L461.5,319Z" style="fill:white;stroke:white;stroke-width:0.73px;stroke-linecap:butt;"/>
    </g>
    <g transform="matrix(1.37288,0,0,1.37288,2137.59,-103.545)">
        <path d="M461.5,319L468.123,338.348L489.556,338.348L472.217,350.305L478.84,369.652L461.5,357.695L444.16,369.652L450.783,350.305L433.444,338.348L454.877,338.348L461.5,319Z" style="fill:white;stroke:white;stroke-width:0.73px;stroke-linecap:butt;"/>
    </g>
    <g transform="matrix(0.9069,0,0,0.9069,74.194,49.8055)">
        <path d="M461.5,319L468.123,338.348L489.556,338.348L472.217,350.305L478.84,369.652L461.5,357.695L444.16,369.652L450.783,350.305L433.444,338.348L454.877,338.348L461.5,319Z" style="fill:white;stroke:white;stroke-width:1.1px;stroke-linecap:butt;"/>
    </g>
    <g transform="matrix(1,0,0,1,1500.97,375.3)">
        <path d="M461.5,319L468.123,338.348L489.556,338.348L472.217,350.305L478.84,369.652L461.5,357.695L444.16,369.652L450.783,350.305L433.444,338.348L454.877,338.348L461.5,319Z" style="fill:white;stroke:white;stroke-width:1px;stroke-linecap:butt;"/>
    </g>
    <g transform="matrix(1,0,0,1,2060.3,579.117)">
        <path d="M461.5,319L468.123,338.348L489.556,338.348L472.217,350.305L478.84,369.652L461.5,357.695L444.16,369.652L450.783,350.305L433.444,338.348L454.877,338.348L461.5,319Z" style="fill:white;stroke:white;stroke-width:1px;stroke-linecap:butt;"/>
    </g>
    <g transform="matrix(1,0,0,1,419.975,45.6957)">
        <path d="M1931.62,198.592C1956.88,211.665 1974.15,238.042 1974.15,268.423C1974.15,311.791 1938.94,347 1895.58,347C1872.06,347 1850.94,336.647 1836.54,320.254C1847.34,325.843 1859.59,329 1872.58,329C1915.94,329 1951.15,293.791 1951.15,250.423C1951.15,230.572 1943.78,212.43 1931.62,198.592Z" style="fill:white;"/>
    </g>
</svg>
